<?xml version="1.0" standalone="no"?>
<!DOCTYPE svg PUBLIC "-//W3C//DTD SVG 20010904//EN"
 "http://www.w3.org/TR/2001/REC-SVG-20010904/DTD/svg10.dtd">
<svg version="1.0" xmlns="http://www.w3.org/2000/svg"
 width="709.000000pt" height="709.000000pt" viewBox="0 0 709.000000 709.000000"
 preserveAspectRatio="xMidYMid meet">
<metadata>
Created by potrace 1.14, written by Peter Selinger 2001-2017
</metadata>
<g transform="translate(0.000000,709.000000) scale(0.100000,-0.100000)"
fill="#000000" stroke="none">
<path d="M3443 6943 c-59 -54 -261 -251 -449 -438 -290 -290 -349 -354 -400
-433 -40 -63 -67 -95 -83 -99 -28 -7 -435 9 -943 38 -357 19 -358 19 -414 -1
-31 -11 -60 -22 -63 -26 -3 -3 -8 -297 -11 -652 -5 -573 -8 -654 -23 -706 -10
-32 -21 -64 -25 -71 -4 -7 -224 -234 -489 -506 -266 -271 -483 -500 -483 -507
0 -19 70 -96 540 -592 214 -226 409 -433 432 -460 l43 -50 0 -689 c0 -379 4
-693 8 -698 5 -4 336 -6 735 -5 l727 4 70 -62 c98 -88 378 -354 583 -555 107
-105 195 -201 229 -250 67 -96 111 -145 132 -145 9 0 232 218 496 484 l480
484 70 6 c39 3 291 13 560 21 792 23 830 26 839 58 4 12 11 325 16 696 9 588
13 677 27 705 9 17 158 175 331 351 382 387 652 674 652 691 0 7 -33 57 -74
111 -51 68 -201 225 -489 511 l-415 412 -6 83 c-3 45 -10 325 -16 622 -11 542
-19 708 -37 726 -10 10 -330 23 -988 40 l-450 11 -55 34 c-36 22 -125 108
-255 246 -334 354 -676 708 -685 708 -5 0 -57 -44 -117 -97z m214 -86 c123
-137 793 -845 821 -869 43 -36 66 -37 792 -41 520 -2 620 -5 645 -17 l30 -15
0 -220 c0 -121 -4 -432 -9 -691 l-9 -471 31 -22 c17 -12 50 -30 74 -41 31 -14
127 -104 343 -322 545 -551 515 -517 531 -584 l15 -59 -171 -165 c-93 -91
-263 -253 -378 -360 -194 -181 -214 -204 -295 -326 -48 -72 -101 -164 -119
-205 l-31 -74 12 -400 c6 -220 14 -486 18 -590 5 -171 4 -192 -11 -208 -9 -9
-56 -29 -104 -43 l-87 -27 -425 27 c-234 16 -495 31 -581 33 -180 7 -177 8
-261 -95 -26 -31 -220 -212 -431 -402 -272 -244 -394 -361 -420 -401 -20 -30
-48 -66 -62 -79 l-24 -23 -47 38 c-26 21 -182 172 -347 334 -237 234 -321 325
-403 432 -57 75 -110 142 -118 149 -11 9 -112 14 -368 21 -555 13 -902 11
-973 -6 -33 -8 -78 -15 -99 -15 l-39 0 8 87 c10 106 6 943 -5 1171 l-7 164
-46 66 c-26 38 -105 123 -184 196 -356 333 -700 666 -712 690 -13 24 -12 29
24 83 99 149 184 245 544 606 l386 387 3 687 3 686 172 -6 c95 -4 361 -18 592
-32 231 -13 469 -27 529 -30 l109 -7 64 69 c109 115 449 488 623 683 183 206
264 288 295 300 27 10 45 0 102 -63z"/>
<path d="M3343 6348 c-190 -183 -713 -700 -713 -704 0 -1 28 -4 61 -6 l62 -3
360 373 c332 344 406 412 449 412 21 0 237 -221 1538 -1575 329 -342 424 -434
655 -634 498 -432 583 -510 601 -555 24 -61 21 -155 -9 -218 -29 -65 -167
-200 -890 -875 l-99 -91 12 -57 12 -56 246 239 c471 457 660 648 764 772 114
136 148 182 148 199 0 35 -283 314 -833 819 -233 214 -415 397 -945 951 -1055
1104 -1108 1158 -1144 1177 -64 33 -74 27 -275 -168z"/>
<path d="M4753 5807 c-15 -13 -40 -31 -55 -40 -16 -10 -28 -24 -28 -32 0 -14
4 -13 33 1 41 21 116 77 117 87 0 15 -40 6 -67 -16z"/>
<path d="M2247 5803 c-11 -10 -8 -52 4 -76 26 -50 119 -130 119 -101 0 12 -24
50 -46 74 -12 14 -33 44 -47 68 -13 23 -27 39 -30 35z"/>
<path d="M1344 5765 c-17 -43 56 -156 158 -245 40 -35 114 -107 165 -159 87
-91 93 -95 109 -79 16 16 9 26 -138 180 -85 90 -178 195 -206 234 -54 75 -79
94 -88 69z"/>
<path d="M4979 5717 c-89 -59 -179 -138 -179 -158 0 -19 29 -7 71 29 24 22 60
47 80 56 43 20 115 79 129 106 20 38 -10 28 -101 -33z"/>
<path d="M5745 5744 c-98 -52 -199 -130 -263 -203 -36 -42 -108 -117 -161
-167 -53 -51 -114 -113 -135 -138 -110 -135 71 1 299 225 115 114 191 179 235
204 75 43 110 73 110 92 0 20 -32 16 -85 -13z"/>
<path d="M1710 5752 c0 -12 49 -81 104 -148 28 -34 70 -87 94 -118 38 -51 63
-67 64 -43 0 5 -19 44 -42 87 -54 101 -220 268 -220 222z"/>
<path d="M2016 5728 c8 -29 36 -69 93 -135 37 -43 47 -50 63 -42 10 5 18 14
18 19 0 11 -163 180 -174 180 -4 0 -4 -10 0 -22z"/>
<path d="M5375 5714 c-60 -31 -88 -53 -394 -311 -41 -34 -18 -38 43 -7 96 48
408 295 414 327 5 23 -7 21 -63 -9z"/>
<path d="M2525 5530 c-229 -29 -463 -147 -665 -337 -189 -178 -303 -377 -356
-623 -30 -137 -25 -397 10 -563 31 -148 80 -306 141 -457 44 -107 295 -624
337 -693 l23 -39 96 -2 c87 -2 103 -6 170 -38 92 -43 157 -107 201 -196 30
-60 33 -75 33 -152 0 -75 -4 -91 -30 -139 -34 -61 -90 -114 -155 -144 -25 -12
-47 -23 -49 -24 -3 -2 6 -36 19 -77 l23 -73 151 40 c122 32 174 40 271 44 186
8 292 -25 440 -137 l68 -51 -7 63 c-28 259 -63 378 -191 633 -106 212 -190
355 -293 498 -54 75 -79 106 -270 333 -298 354 -472 793 -432 1091 25 192 95
314 252 438 300 237 592 226 869 -33 209 -196 307 -436 269 -661 -27 -160
-119 -280 -278 -358 -82 -42 -101 -47 -175 -51 -92 -5 -138 11 -187 63 -21 23
-25 36 -24 88 1 74 29 138 104 242 28 38 46 71 40 73 -28 10 -176 -142 -212
-218 -49 -99 -31 -235 40 -302 151 -145 414 -116 709 78 126 83 188 182 224
357 42 204 12 455 -80 682 -129 315 -427 559 -770 629 -91 19 -232 26 -316 16z"/>
<path d="M1336 5412 c-2 -4 23 -43 56 -87 33 -44 71 -102 85 -130 14 -27 39
-65 56 -82 29 -31 32 -32 49 -16 24 21 23 27 -11 76 -15 23 -43 66 -61 95 -37
60 -80 106 -125 134 -33 20 -42 22 -49 10z"/>
<path d="M5719 5332 c-19 -16 -88 -65 -155 -109 -126 -85 -234 -176 -222 -188
4 -4 58 26 120 68 62 41 136 87 163 101 48 24 97 74 124 124 19 35 7 37 -30 4z"/>
<path d="M1300 5071 c0 -4 17 -28 38 -52 21 -24 55 -68 77 -98 34 -47 40 -52
51 -37 17 24 -38 120 -95 163 -41 32 -71 42 -71 24z"/>
<path d="M5692 5033 c-18 -8 -50 -37 -72 -63 -21 -26 -60 -58 -85 -71 -49 -26
-57 -39 -25 -39 28 0 127 64 134 87 3 10 29 34 57 53 27 18 53 38 55 42 9 14
-29 8 -64 -9z"/>
<path d="M5710 4800 c-41 -22 -105 -79 -97 -86 15 -15 136 52 185 101 14 14
-57 2 -88 -15z"/>
<path d="M1299 4782 c25 -36 101 -105 108 -99 7 7 -32 78 -57 105 -11 12 -32
22 -46 22 l-25 0 20 -28z"/>
<path d="M995 4035 c-208 -195 -388 -369 -401 -387 -34 -45 -30 -67 22 -129
68 -79 307 -331 570 -599 126 -129 250 -260 273 -290 44 -56 172 -193 176
-188 1 2 6 25 12 52 l11 50 -58 65 c-32 36 -70 92 -83 123 -14 32 -47 81 -74
109 -48 52 -592 565 -663 627 -58 49 -83 96 -76 137 8 39 139 177 483 506
l193 184 -1 48 c-1 26 -2 47 -3 47 -1 0 -173 -160 -381 -355z"/>
<path d="M4830 4321 c-191 -36 -406 -146 -543 -280 -118 -114 -160 -211 -160
-371 -1 -88 3 -115 23 -165 29 -75 109 -156 200 -205 60 -32 72 -35 150 -35
78 0 92 3 165 38 83 40 145 81 145 98 0 17 -44 9 -144 -26 -149 -52 -228 -46
-308 25 -28 24 -55 62 -74 102 -26 56 -29 74 -29 158 0 81 4 102 25 145 53
105 201 220 377 292 150 62 282 57 426 -14 134 -67 246 -208 292 -366 27 -92
18 -224 -20 -307 -66 -143 -208 -276 -401 -373 -115 -58 -263 -104 -472 -148
-364 -75 -552 -152 -759 -308 -151 -114 -378 -365 -408 -451 -18 -51 -19 -100
-4 -227 l12 -96 57 -68 c31 -38 72 -97 90 -131 18 -35 34 -64 35 -66 2 -2 25
11 51 28 27 17 80 40 119 51 106 32 183 77 261 154 83 82 95 113 144 363 16
84 43 187 60 230 107 277 344 427 675 427 136 0 225 -22 336 -82 13 -7 205
155 295 248 168 175 238 342 237 569 -1 234 -94 436 -281 611 -131 123 -258
178 -425 184 -56 2 -122 0 -147 -4z"/>
<path d="M2000 2733 c-207 -72 -321 -270 -306 -533 14 -263 116 -461 289 -558
132 -74 357 -128 507 -120 119 7 207 -6 297 -43 80 -34 94 -46 662 -582 68
-64 129 -117 135 -116 6 0 33 27 59 60 27 33 60 64 73 69 14 6 94 14 177 20
238 15 332 52 482 192 166 155 245 329 246 540 0 113 -2 125 -48 323 -53 227
-39 338 54 431 82 82 177 99 312 55 126 -42 182 -115 184 -241 1 -59 -24 -104
-75 -138 -36 -23 -52 -27 -114 -27 -58 0 -78 4 -101 21 -30 22 -59 71 -68 119
-6 26 -8 28 -17 12 -14 -25 -2 -83 28 -134 34 -59 97 -94 179 -101 58 -4 72
-2 130 27 73 36 122 88 163 171 23 47 27 67 27 145 0 83 -3 95 -34 157 -96
188 -239 267 -463 255 -244 -13 -430 -129 -536 -336 -48 -92 -72 -166 -107
-331 -41 -192 -73 -260 -164 -350 -85 -83 -158 -127 -271 -160 -86 -25 -135
-49 -177 -84 l-29 -24 -48 81 c-135 227 -287 360 -484 425 -66 22 -95 25 -202
25 -116 0 -137 -3 -285 -43 -204 -55 -275 -58 -353 -15 -67 36 -126 101 -160
173 -24 51 -27 69 -27 162 1 224 60 304 241 326 89 11 161 -47 183 -147 25
-113 -25 -208 -119 -224 -53 -9 -51 -25 2 -25 96 0 174 72 199 186 10 45 9 63
-5 116 -50 186 -261 302 -436 241z"/>
<path d="M5740 2376 c25 -66 72 -128 86 -113 10 10 -60 132 -79 135 -14 3 -16
0 -7 -22z"/>
<path d="M1434 2344 c-32 -20 -75 -42 -94 -49 l-35 -13 29 -7 c24 -7 43 -1 92
24 33 17 72 43 84 56 22 24 23 25 4 25 -11 0 -47 -16 -80 -36z"/>
<path d="M5580 2267 c0 -8 15 -37 34 -65 19 -27 41 -65 49 -83 24 -57 127
-144 141 -120 3 5 -18 38 -47 75 -28 36 -68 88 -87 116 -40 58 -90 101 -90 77z"/>
<path d="M2000 2204 c0 -58 30 -119 92 -188 61 -68 62 -68 106 -63 24 3 48 9
53 14 5 5 -45 62 -121 138 -123 123 -130 128 -130 99z"/>
<path d="M1548 2193 c-21 -14 -40 -33 -43 -43 -3 -10 -36 -34 -73 -54 l-67
-35 38 -1 c50 0 71 12 135 78 61 64 67 92 10 55z"/>
<path d="M5396 2092 c-3 -5 26 -46 65 -93 39 -46 92 -120 119 -164 53 -87 119
-158 163 -174 44 -17 34 7 -43 94 -38 43 -84 106 -101 139 -49 93 -186 226
-203 198z"/>
<path d="M1560 1915 c-41 -23 -86 -53 -100 -67 -14 -14 -44 -37 -67 -51 -44
-28 -62 -47 -43 -47 14 0 162 79 248 133 43 27 61 44 58 54 -3 8 -6 17 -6 19
0 8 -17 1 -90 -41z"/>
<path d="M4760 1885 c-59 -60 -61 -63 -58 -109 l3 -47 92 93 92 93 -34 16 -34
16 -61 -62z"/>
<path d="M5170 1923 c0 -4 53 -61 118 -128 99 -100 129 -137 176 -223 32 -57
71 -118 86 -136 48 -54 198 -116 231 -95 10 6 5 11 -16 19 -97 35 -105 42
-218 189 -138 182 -216 271 -290 333 -52 43 -87 60 -87 41z"/>
<path d="M1614 1636 c-83 -56 -163 -115 -178 -131 -35 -40 -96 -162 -96 -192
0 -38 19 -24 80 56 47 62 223 228 328 308 30 24 41 47 25 56 -5 2 -76 -42
-159 -97z"/>
<path d="M5057 1724 c-3 -3 23 -44 59 -90 35 -46 76 -108 90 -137 15 -28 44
-71 66 -95 22 -24 46 -58 53 -76 12 -29 32 -46 52 -46 6 0 -91 180 -135 250
-64 101 -168 210 -185 194z"/>
<path d="M4890 1570 c0 -24 65 -130 79 -130 6 0 29 -33 53 -72 l43 -73 3 34
c5 52 -23 114 -69 150 -22 18 -51 50 -66 72 -28 43 -43 50 -43 19z"/>
<path d="M1880 1529 c-89 -48 -167 -135 -158 -175 2 -10 32 10 92 60 49 41
108 83 132 93 24 10 44 21 44 24 0 5 -45 29 -53 29 -1 0 -27 -14 -57 -31z"/>
<path d="M2185 1443 c-73 -38 -141 -111 -122 -130 5 -4 217 135 217 143 0 11
-69 1 -95 -13z"/>
<path d="M2692 1441 c2 -4 172 -170 379 -369 276 -264 385 -375 407 -414 16
-29 39 -64 50 -78 l21 -25 158 159 158 158 -50 -6 c-90 -12 -101 -16 -120 -48
-28 -47 -85 -108 -103 -108 -26 0 -202 157 -552 495 -193 186 -235 217 -318
236 -18 4 -32 4 -30 0z"/>
<path d="M4720 1445 c0 -2 24 -32 54 -65 31 -34 58 -76 64 -98 l10 -37 1 46
c1 36 -5 55 -29 87 -30 42 -100 89 -100 67z"/>
<path d="M2433 1350 c-28 -17 -53 -47 -53 -65 0 -3 20 8 45 25 25 17 45 37 45
45 0 19 1 19 -37 -5z"/>
</g>
</svg>
